# xmcd
#
# Track frame offsets:
#	150
#	12777
#	25489
#	39221
#	52251
#	67018
#	82803
#	93977
#	107287
#	120329
#	132566
#	144751
#	157616
#	170363
#	182711
#	196663
#	210317
#	223379
#	235328
#	247953
#
# Disc length: 3454 seconds
#
# Revision: 2
# Processed by: cddbd v1.5.2PL0 Copyright (c) Steve Scherf et al.
# Submitted via: audiograbber 1.83.01
#
DISCID=fe0d7c14
DTITLE=Various Artist - Country, Bluegrass and Mountain Music [CD1]
DYEAR=2002
DGENRE=Country
TTITLE0=Hank Williams - Lovesick Blues
TTITLE1=Jimmy Wakely - I Love You So Much It Hurts
TTITLE2=Merle Travis - Divorce Me C.O.D.
TTITLE3=Spade Cooley with Tex Williams - Shame On You
TTITLE4=John 'Dusty' King - Deep in the Heart of Texas
TTITLE5=Ken Maynard - Cowboy's Lament
TTITLE6=Gene Autry - Dust
TTITLE7=The Sons of the Pioneers - Cool Water
TTITLE8=Merle Travis - Sixteen Tons
TTITLE9=Merle Travis - No Vacancy
TTITLE10=rnest Tubb - I Love You Because
TTITLE11=Hank Williams - I'm So Lonseome I Could Cry
TTITLE12=Roy Atcuff and his Smokey Mountain Boys - Wreck on the Highway
TTITLE13=Tex Ritter - Sing, Cowboy, Sing
TTITLE14=Bob Wills and His Texas Playboys - Osage Stomp
TTITLE15=The Sons of the Pioneers - The Everlasting Hills of Oklahoma
TTITLE16=Gene Autry - South of the Border
TTITLE17=Hank Williams - A Mansion on the Hill
TTITLE18=Jimmy Davies - On the Sunny Side of the Rockies
TTITLE19=Roy Rogers - A Gay Ranchero
EXTD=
EXTT0=
EXTT1=
EXTT2=
EXTT3=
EXTT4=
EXTT5=
EXTT6=
EXTT7=
EXTT8=
EXTT9=
EXTT10=
EXTT11=
EXTT12=
EXTT13=
EXTT14=
EXTT15=
EXTT16=
EXTT17=
EXTT18=
EXTT19=
PLAYORDER=
